<svg xmlns="http://www.w3.org/2000/svg" xmlns:xlink="http://www.w3.org/1999/xlink" viewBox="0 0 802.9 664.48"><defs><style>.cls-1{fill:#221749;stroke-width:6.92px;}.cls-1,.cls-16,.cls-17,.cls-18,.cls-19,.cls-2,.cls-20,.cls-3,.cls-4{stroke:#8cfefe;}.cls-1,.cls-16,.cls-17,.cls-18,.cls-19,.cls-20,.cls-4{stroke-miterlimit:10;}.cls-2,.cls-3{stroke-linecap:square;stroke-linejoin:round;stroke-width:11px;}.cls-2,.cls-5{fill:url(#Degradado_sin_nombre_3);}.cls-15,.cls-3{fill:#4e1068;}.cls-4{fill:none;stroke-width:11.53px;}.cls-6{fill:url(#Degradado_sin_nombre_5);}.cls-7{fill:url(#Degradado_sin_nombre_5-2);}.cls-8{fill:url(#Degradado_sin_nombre_5-3);}.cls-9{fill:url(#Degradado_sin_nombre_5-4);}.cls-10{fill:url(#Degradado_sin_nombre_5-5);}.cls-11{fill:url(#Degradado_sin_nombre_5-6);}.cls-12{fill:url(#Degradado_sin_nombre_5-7);}.cls-13{fill:url(#Degradado_sin_nombre_5-8);}.cls-14{fill:url(#Degradado_sin_nombre_5-9);}.cls-16,.cls-17,.cls-18,.cls-19,.cls-20{stroke-width:6px;}.cls-16{fill:url(#Degradado_sin_nombre_3-3);}.cls-17{fill:url(#Degradado_sin_nombre_3-4);}.cls-18{fill:url(#Degradado_sin_nombre_3-5);}.cls-19{fill:url(#Degradado_sin_nombre_3-6);}.cls-20{fill:url(#Degradado_sin_nombre_3-7);}</style><linearGradient id="Degradado_sin_nombre_3" x1="401.45" y1="419.86" x2="401.45" y2="229.92" gradientUnits="userSpaceOnUse"><stop offset="0" stop-color="#803fab"/><stop offset="1" stop-color="#de25f5"/></linearGradient><linearGradient id="Degradado_sin_nombre_5" x1="86.78" y1="472.14" x2="86.78" y2="302.65" gradientUnits="userSpaceOnUse"><stop offset="0" stop-color="#d93a3b"/><stop offset="1" stop-color="#fee023"/></linearGradient><linearGradient id="Degradado_sin_nombre_5-2" x1="170.75" y1="472.14" x2="170.75" y2="302.65" xlink:href="#Degradado_sin_nombre_5"/><linearGradient id="Degradado_sin_nombre_5-3" x1="254.71" y1="472.14" x2="254.71" y2="302.65" xlink:href="#Degradado_sin_nombre_5"/><linearGradient id="Degradado_sin_nombre_5-4" x1="338.68" y1="472.14" x2="338.68" y2="302.65" xlink:href="#Degradado_sin_nombre_5"/><linearGradient id="Degradado_sin_nombre_5-5" x1="425.51" y1="472.14" x2="425.51" y2="302.65" xlink:href="#Degradado_sin_nombre_5"/><linearGradient id="Degradado_sin_nombre_5-6" x1="512.33" y1="472.14" x2="512.33" y2="302.65" xlink:href="#Degradado_sin_nombre_5"/><linearGradient id="Degradado_sin_nombre_5-7" x1="573.4" y1="472.14" x2="573.4" y2="302.65" xlink:href="#Degradado_sin_nombre_5"/><linearGradient id="Degradado_sin_nombre_5-8" x1="636.75" y1="472.14" x2="636.75" y2="302.65" xlink:href="#Degradado_sin_nombre_5"/><linearGradient id="Degradado_sin_nombre_5-9" x1="720.71" y1="472.14" x2="720.71" y2="302.65" xlink:href="#Degradado_sin_nombre_5"/><linearGradient id="Degradado_sin_nombre_3-3" x1="401.45" y1="173.21" x2="401.45" y2="27.08" xlink:href="#Degradado_sin_nombre_3"/><linearGradient id="Degradado_sin_nombre_3-4" x1="365.17" y1="197.1" x2="365.17" y2="172.46" xlink:href="#Degradado_sin_nombre_3"/><linearGradient id="Degradado_sin_nombre_3-5" x1="437.32" y1="197.09" x2="437.32" y2="172.71" xlink:href="#Degradado_sin_nombre_3"/><linearGradient id="Degradado_sin_nombre_3-6" x1="473.08" y1="27.1" x2="473.08" y2="3" xlink:href="#Degradado_sin_nombre_3"/><linearGradient id="Degradado_sin_nombre_3-7" x1="329.44" y1="26.96" x2="329.44" y2="3.01" xlink:href="#Degradado_sin_nombre_3"/></defs><g id="Capa_2" data-name="Capa 2"><g id="Capa_1-2" data-name="Capa 1"><polyline class="cls-1" points="490.94 116.02 697.99 116.02 555.95 362.05 413.9 608.08 271.86 362.05 129.81 116.02 293.6 116.02"/><polygon class="cls-2" points="651.01 229.92 647.62 229.92 577.32 229.92 572.55 229.92 536.39 229.92 540.14 256.97 514.53 229.92 464.72 229.92 461.33 229.92 389.66 229.92 386.26 229.92 314.6 229.92 311.2 229.92 239.54 229.92 236.14 229.92 164.47 229.92 161.08 229.92 86.02 229.92 5.5 419.86 98.37 419.86 102.57 419.86 191.24 419.86 195.44 419.86 284.11 419.86 288.31 419.86 376.98 419.86 381.18 419.86 469.85 419.86 474.05 419.86 562.72 419.86 566.92 419.86 607.46 419.86 613.35 419.86 700.33 419.86 704.53 419.86 797.4 419.86 726.08 229.92 651.01 229.92"/><polygon class="cls-3" points="33.04 445.27 752.96 445.27 797.4 419.86 5.5 419.86 33.04 445.27"/><polyline class="cls-4" points="490.05 89.26 752.26 89.26 583.08 371.26 413.9 653.27 244.72 371.26 75.55 89.26 317.93 89.26"/><polygon class="cls-5" points="651.01 229.92 647.62 229.92 577.32 229.92 572.55 229.92 536.39 229.92 540.14 256.97 514.53 229.92 464.72 229.92 461.33 229.92 389.66 229.92 386.26 229.92 314.6 229.92 311.2 229.92 239.54 229.92 236.14 229.92 164.47 229.92 161.08 229.92 86.02 229.92 5.5 419.86 98.37 419.86 102.57 419.86 191.24 419.86 195.44 419.86 284.11 419.86 288.31 419.86 376.98 419.86 381.18 419.86 469.85 419.86 474.05 419.86 562.72 419.86 566.92 419.86 607.46 419.86 613.35 419.86 700.33 419.86 704.53 419.86 797.4 419.86 726.08 229.92 651.01 229.92"/><path class="cls-6" d="M74.66,336.5,47.73,406.15H24.83L91.48,243.63h57.26L93.52,406.15H70.62l25.3-69.65Zm26.93-69.65-18,46.43h20.72l16.87-46.43Z"/><path class="cls-7" d="M225.08,243.63,208,313.28,182,336.5h20.27L185.1,406.15H162.21L181,336.5H159.71l-20.4,69.65H116.42l51.4-162.52Zm-45,23.22-13.6,46.43h20.72l12.51-46.43Z"/><path class="cls-8" d="M208,406.15l36.17-162.52h19.09L235.52,382.94h22.35l24.47-139.31h19.09L276.69,406.15Z"/><path class="cls-9" d="M352.08,336.5h20.27l-4.08,69.65h-22.9l5.71-69.65H329.82l-7.34,69.65h-22.9l20.94-162.52H339.6l-7.34,69.65H353l5.71-69.65h19.09l-4.08,69.65Z"/><path class="cls-10" d="M414.87,336.5l-.81,69.65H391.17l5.69-162.52h57.27l5.72,162.52H437l-.82-69.65Zm.81-69.65-.54,46.43h20.72l-.55-46.43Z"/><path class="cls-11" d="M482.75,406.15l-9.54-162.52h38.18l22.08,23.22,18,139.3Zm11.46-139.3,9.53,116.09h22.35L513.84,266.85Z"/><path class="cls-12" d="M568.65,243.63l28.58,162.52h-22.9L549.56,243.63Z"/><path class="cls-13" d="M626,336.5l15.4,69.65h-22.9L586.35,243.63h57.26l43.54,162.52h-22.9l-17-69.65Zm-15.39-69.65,10.26,46.43h20.72L630.2,266.85Z"/><path class="cls-14" d="M689.09,266.85l43.85,139.3H710L662.69,243.63H720l58.78,162.52H755.84l-47.12-139.3Z"/><polygon class="cls-15" points="33.04 445.27 752.96 445.27 797.4 419.86 5.5 419.86 33.04 445.27"/><path class="cls-16" d="M535.77,169.84c-1.58,2.54-3.81,3.49-6.84,3.36-4.62-.21-9.26-.11-13.89,0-1.95,0-2.95-.66-3-2.7,0-5.06-.15-10.13-.17-15.2,0-8.83,0-17.66,0-26.49,0-2.17-.67-3.29-2.95-3.28q-10.49,0-21,0c-2.41,0-3.08,1.17-3.07,3.46.08,12.59,0,25.18,0,37.77,0,1,0,1.92,0,2.88-.16,3.29-.41,3.53-3.72,3.54-4.81,0-9.62,0-14.43,0-4,0-4.69-.74-4.69-4.81,0-5,.07-10,.07-15,0-3.31-.7-4-4-4q-56.79,0-113.58,0c-2.41,0-3,1-2.93,3.12.1,5.24.05,10.49,0,15.74,0,3.22-1,4.25-4.2,4.26-5.25,0-10.49,0-15.74,0-3.13,0-3.82-.71-3.83-3.91,0-13,0-26,0-39.08,0-3.55-.17-3.89-3.57-3.94q-9.83-.17-19.67,0c-3.55.07-3.67.34-3.67,3.82,0,12.77,0,25.53,0,38.3,0,5.56,0,5.56-5.62,5.56-4.2,0-8.4,0-12.59,0-3.75,0-5.65-1.94-5.65-5.64q0-31.49,0-63c0-3.88,2.09-6,6-6,5.16,0,10.32-.06,15.47,0,1.82,0,2.46-.62,2.44-2.41-.07-5.25,0-10.5,0-15.74,0-3.75,1.87-5.64,5.62-5.67,5.42,0,10.84.06,16.26,0,4.66-.08,5-.55,5-5.17,0-5.25.08-10.49.05-15.74,0-2.22.93-3.1,3.18-3.06,5.42.1,10.84.06,16.26,0,3.62,0,4.29-.73,4.3-4.29,0-5.07,0-10.14,0-15.21,0-3.34.87-4.17,4.19-4.18,5.16,0,10.32,0,15.48,0,3.13,0,4.25,1.16,4.27,4.3,0,5.34.08,10.67,0,16,0,2.47.88,3.4,3.4,3.39q32.38-.11,64.78,0c2.48,0,3.48-.9,3.44-3.38-.09-5.33-.05-10.67,0-16,0-3.25,1-4.28,4.21-4.3q8,0,16,0c2.86,0,3.7.82,3.73,3.78.05,5.07,0,10.14,0,15.21,0,3.93.73,4.66,4.78,4.68,5.16,0,10.32.1,15.48,0,2.49-.07,3.51.9,3.5,3.34,0,5.33,0,10.66,0,16,0,3.81.67,4.57,4.58,4.64,5.25.08,10.49,0,15.74,0,3.27,0,3.57.23,3.62,3.6.07,5.59.14,11.19,0,16.78-.06,2.44.92,3.35,3.17,3.35,5.59,0,11.19.2,16.78,0,3.19-.11,5.39,1,6.92,3.68ZM353.13,98.52v0c3.23,0,6.46,0,9.69,0,1.9,0,2.88-.87,2.86-2.89,0-5.41.05-10.83,0-16.24,0-3.11-1.64-4.57-4.77-4.59-5.16,0-10.31.09-15.46-.06-2.51-.07-3.61,1.06-3.64,3.33-.07,6.12,0,12.23,0,18.34,0,1.52.68,2.21,2.24,2.18C347,98.48,350.07,98.52,353.13,98.52Zm96.49,0v0c3.14,0,6.29,0,9.43,0,1.42,0,2.13-.58,2.13-2,0-6.21,0-12.41-.07-18.61,0-2.1-1-3.3-3.46-3.24-5.15.14-10.31,0-15.46,0-3.39,0-4.91,1.53-4.94,5-.05,5.24,0,10.49,0,15.73,0,2.13.92,3,3,3C443.33,98.47,446.47,98.48,449.62,98.48Z"/><path class="cls-17" d="M365,172.52c6.64,0,13.29,0,19.93,0,3.52,0,4.51,1,4.52,4.54,0,5.07,0,10.14,0,15.21,0,3.36-1.46,4.8-4.79,4.81q-19.67,0-39.34,0c-3.24,0-4.35-1-4.4-4.15q-.12-8.26-.06-16.53c0-3.07,1-3.94,4.21-3.95q10,0,19.94,0Z"/><path class="cls-18" d="M460.68,172.71a19.12,19.12,0,0,1,.49,2.95c0,5.76.06,11.52,0,17.28,0,3.49-.76,4.14-4.16,4.14H418.78c-4,0-5.33-1.26-5.34-5.29q0-7.46,0-14.93c0-3.34.38-3.7,3.81-3.72,12.84-.08,25.67-.13,38.5-.22C457.3,172.91,458.85,172.79,460.68,172.71Z"/><path class="cls-19" d="M485,14.86c0,2.88,0,5.76,0,8.64,0,2.37-1.1,3.56-3.48,3.56-5.5,0-11,.08-16.49,0-2.66,0-3.79-1.26-3.8-3.91q-.06-8,0-16c0-2.59,1.32-4.08,4-4.13C471,3,476.71,3,482.47,3,484.23,3,485,4,485,5.7v9.16Z"/><path class="cls-20" d="M317.94,15c0-3,0-5.93,0-8.9,0-2,.79-3.07,2.95-3,5.41.05,10.83,0,16.24,0,2.48,0,3.75,1.23,3.77,3.67q.09,8.38.06,16.76a3.13,3.13,0,0,1-3.4,3.48c-5.67.06-11.35,0-17,0-1.87,0-2.63-1-2.6-2.83C318,21.07,317.94,18,317.94,15Z"/></g></g></svg>